<svg xmlns="http://www.w3.org/2000/svg" width="1040" height="540" viewBox="0 0 1040 540">
<rect width="100%" height="100%" fill="white"/>
<text x="520.0" y="28" text-anchor="middle" font-size="20" font-family="Arial">Adaptive valid-observation horizon: median progress-neutral IC</text>
<line x1="180" y1="291.33" x2="1010" y2="291.33" stroke="#111827" stroke-width="1"/>
<line x1="180" y1="58" x2="180" y2="435" stroke="#111827" stroke-width="1"/>
<text x="249.17" y="473" text-anchor="middle" font-size="12" font-family="Arial" transform="rotate(-25 249.17,473)">depth_imbalance_1</text>
<rect x="197.29" y="204.85" width="28.36" height="86.48" fill="#2563eb" opacity="0.88"><title>depth_imbalance_1 valid_obs_10: 0.0553348</title></rect>
<rect x="231.88" y="89.42" width="28.36" height="201.92" fill="#dc2626" opacity="0.88"><title>depth_imbalance_1 valid_obs_200: 0.129193</title></rect>
<rect x="266.46" y="140.73" width="28.36" height="150.60" fill="#16a34a" opacity="0.88"><title>depth_imbalance_1 valid_obs_50: 0.0963617</title></rect>
<text x="387.50" y="473" text-anchor="middle" font-size="12" font-family="Arial" transform="rotate(-25 387.50,473)">depth_imbalance_3</text>
<rect x="335.63" y="226.33" width="28.36" height="65.00" fill="#2563eb" opacity="0.88"><title>depth_imbalance_3 valid_obs_10: 0.0415899</title></rect>
<rect x="370.21" y="166.83" width="28.36" height="124.51" fill="#dc2626" opacity="0.88"><title>depth_imbalance_3 valid_obs_200: 0.0796645</title></rect>
<rect x="404.79" y="181.08" width="28.36" height="110.25" fill="#16a34a" opacity="0.88"><title>depth_imbalance_3 valid_obs_50: 0.0705413</title></rect>
<text x="525.83" y="473" text-anchor="middle" font-size="12" font-family="Arial" transform="rotate(-25 525.83,473)">depth_imbalance_5</text>
<rect x="473.96" y="252.69" width="28.36" height="38.64" fill="#2563eb" opacity="0.88"><title>depth_imbalance_5 valid_obs_10: 0.0247226</title></rect>
<rect x="508.54" y="197.57" width="28.36" height="93.76" fill="#dc2626" opacity="0.88"><title>depth_imbalance_5 valid_obs_200: 0.0599914</title></rect>
<rect x="543.12" y="227.68" width="28.36" height="63.65" fill="#16a34a" opacity="0.88"><title>depth_imbalance_5 valid_obs_50: 0.0407283</title></rect>
<text x="664.17" y="473" text-anchor="middle" font-size="12" font-family="Arial" transform="rotate(-25 664.17,473)">microprice_minus_mid</text>
<rect x="612.29" y="217.73" width="28.36" height="73.60" fill="#2563eb" opacity="0.88"><title>microprice_minus_mid valid_obs_10: 0.0470922</title></rect>
<rect x="646.88" y="157.98" width="28.36" height="133.36" fill="#dc2626" opacity="0.88"><title>microprice_minus_mid valid_obs_200: 0.0853257</title></rect>
<rect x="681.46" y="170.81" width="28.36" height="120.52" fill="#16a34a" opacity="0.88"><title>microprice_minus_mid valid_obs_50: 0.077116</title></rect>
<text x="802.50" y="473" text-anchor="middle" font-size="12" font-family="Arial" transform="rotate(-25 802.50,473)">ofi_30s</text>
<rect x="750.62" y="162.39" width="28.36" height="128.95" fill="#2563eb" opacity="0.88"><title>ofi_30s valid_obs_10: 0.0825041</title></rect>
<rect x="785.21" y="257.29" width="28.36" height="34.05" fill="#dc2626" opacity="0.88"><title>ofi_30s valid_obs_200: 0.0217846</title></rect>
<rect x="819.79" y="265.89" width="28.36" height="25.44" fill="#16a34a" opacity="0.88"><title>ofi_30s valid_obs_50: 0.0162799</title></rect>
<text x="940.83" y="473" text-anchor="middle" font-size="12" font-family="Arial" transform="rotate(-25 940.83,473)">trade_pressure_30s</text>
<rect x="888.96" y="289.96" width="28.36" height="1.37" fill="#2563eb" opacity="0.88"><title>trade_pressure_30s valid_obs_10: 0.000877381</title></rect>
<rect x="923.54" y="291.33" width="28.36" height="26.48" fill="#dc2626" opacity="0.88"><title>trade_pressure_30s valid_obs_200: -0.0169408</title></rect>
<rect x="958.13" y="291.33" width="28.36" height="112.25" fill="#16a34a" opacity="0.88"><title>trade_pressure_30s valid_obs_50: -0.0718222</title></rect>
<rect x="180" y="503" width="12" height="12" fill="#2563eb"/>
<text x="198" y="515" font-size="12" font-family="Arial">valid_obs_10</text>
<rect x="350" y="503" width="12" height="12" fill="#dc2626"/>
<text x="368" y="515" font-size="12" font-family="Arial">valid_obs_200</text>
<rect x="520" y="503" width="12" height="12" fill="#16a34a"/>
<text x="538" y="515" font-size="12" font-family="Arial">valid_obs_50</text>
</svg>
