<svg xmlns="http://www.w3.org/2000/svg" width="980" height="520" viewBox="0 0 980 520">
<rect width="100%" height="100%" fill="white"/>
<text x="490.0" y="28" text-anchor="middle" font-size="20" font-family="Arial">microprice_minus_mid: quantile mean future mid-return</text>
<line x1="170" y1="399.00" x2="950" y2="399.00" stroke="#111827" stroke-width="1"/>
<line x1="170" y1="58" x2="170" y2="430" stroke="#111827" stroke-width="1"/>
<text x="248.00" y="464" text-anchor="middle" font-size="12" font-family="Arial" transform="rotate(-25 248.00,464)">1</text>
<rect x="189.50" y="376.15" width="31.98" height="22.85" fill="#2563eb" opacity="0.88"><title>1 h60: 0.00515916</title></rect>
<rect x="228.50" y="340.38" width="31.98" height="58.62" fill="#dc2626" opacity="0.88"><title>1 h300: 0.0132348</title></rect>
<rect x="267.50" y="269.08" width="31.98" height="129.92" fill="#16a34a" opacity="0.88"><title>1 h900: 0.0293306</title></rect>
<text x="404.00" y="464" text-anchor="middle" font-size="12" font-family="Arial" transform="rotate(-25 404.00,464)">2</text>
<rect x="345.50" y="394.27" width="31.98" height="4.73" fill="#2563eb" opacity="0.88"><title>2 h60: 0.00106833</title></rect>
<rect x="384.50" y="374.46" width="31.98" height="24.54" fill="#dc2626" opacity="0.88"><title>2 h300: 0.00553974</title></rect>
<rect x="423.50" y="310.43" width="31.98" height="88.57" fill="#16a34a" opacity="0.88"><title>2 h900: 0.019995</title></rect>
<text x="560.00" y="464" text-anchor="middle" font-size="12" font-family="Arial" transform="rotate(-25 560.00,464)">3</text>
<rect x="501.50" y="387.87" width="31.98" height="11.13" fill="#2563eb" opacity="0.88"><title>3 h60: 0.00251166</title></rect>
<rect x="540.50" y="345.02" width="31.98" height="53.98" fill="#dc2626" opacity="0.88"><title>3 h300: 0.0121871</title></rect>
<rect x="579.50" y="287.85" width="31.98" height="111.15" fill="#16a34a" opacity="0.88"><title>3 h900: 0.0250925</title></rect>
<text x="716.00" y="464" text-anchor="middle" font-size="12" font-family="Arial" transform="rotate(-25 716.00,464)">4</text>
<rect x="657.50" y="379.41" width="31.98" height="19.59" fill="#2563eb" opacity="0.88"><title>4 h60: 0.00442203</title></rect>
<rect x="696.50" y="340.85" width="31.98" height="58.15" fill="#dc2626" opacity="0.88"><title>4 h300: 0.0131268</title></rect>
<rect x="735.50" y="264.75" width="31.98" height="134.25" fill="#16a34a" opacity="0.88"><title>4 h900: 0.030308</title></rect>
<text x="872.00" y="464" text-anchor="middle" font-size="12" font-family="Arial" transform="rotate(-25 872.00,464)">5</text>
<rect x="813.50" y="363.29" width="31.98" height="35.71" fill="#2563eb" opacity="0.88"><title>5 h60: 0.00806293</title></rect>
<rect x="852.50" y="283.84" width="31.98" height="115.16" fill="#dc2626" opacity="0.88"><title>5 h300: 0.0259976</title></rect>
<rect x="891.50" y="89.00" width="31.98" height="310.00" fill="#16a34a" opacity="0.88"><title>5 h900: 0.0699851</title></rect>
<rect x="170" y="483" width="12" height="12" fill="#2563eb"/>
<text x="188" y="495" font-size="12" font-family="Arial">h=60s</text>
<rect x="290" y="483" width="12" height="12" fill="#dc2626"/>
<text x="308" y="495" font-size="12" font-family="Arial">h=300s</text>
<rect x="410" y="483" width="12" height="12" fill="#16a34a"/>
<text x="428" y="495" font-size="12" font-family="Arial">h=900s</text>
<text x="20" y="70" font-size="12" font-family="Arial">max 0.07698</text>
<text x="20" y="430" font-size="12" font-family="Arial">min -0.006999</text>
</svg>
